<?xml version="1.0" encoding="UTF-8"?>
<svg width="1400" height="1150" xmlns="http://www.w3.org/2000/svg">
<defs>
  <marker id="arrow" markerWidth="10" markerHeight="7" refX="9" refY="3.5" orient="auto">
    <polygon points="0 0, 10 3.5, 0 7" fill="#94A3B8"/>
  </marker>
  <linearGradient id="grad-blue" x1="0%" y1="0%" x2="100%" y2="0%">
    <stop offset="0%" style="stop-color:#4F46E5;stop-opacity:0.1"/>
    <stop offset="100%" style="stop-color:#7C3AED;stop-opacity:0.1"/>
  </linearGradient>
  <filter id="shadow" x="-20%" y="-20%" width="140%" height="140%">
    <feDropShadow dx="2" dy="2" stdDeviation="3" flood-opacity="0.1"/>
  </filter>
</defs>
<rect width="100%" height="100%" fill="#FAFAFA"/>

<!-- Title -->
<text x="700" y="35" font-family="Arial" font-size="28" font-weight="bold" fill="#1E293B" text-anchor="middle">Claw-Hive System Architecture</text>
<text x="700" y="60" font-family="Arial" font-size="14" fill="#64748B" text-anchor="middle">Multi-Agent LLM Gateway with Real-Time Monitoring &amp; PostgreSQL Sync</text>

<!-- ============ LAYER 1: Users ============ -->
<rect x="50" y="80" width="1300" height="80" rx="12" fill="#EEF2FF" stroke="#4F46E5" stroke-width="2"/>
<text x="70" y="105" font-family="Arial" font-size="12" font-weight="bold" fill="#4F46E5">USERS (Telegram)</text>

<g transform="translate(100, 115)">
  <rect x="0" y="0" width="150" height="40" rx="8" fill="#4F46E5" filter="url(#shadow)"/>
  <text x="75" y="15" font-family="Arial" font-size="11" fill="white" text-anchor="middle">Arthur Wang</text>
  <text x="75" y="30" font-family="Arial" font-size="9" fill="#DDD" text-anchor="middle">Admin</text>
</g>
<g transform="translate(280, 115)">
  <rect x="0" y="0" width="150" height="40" rx="8" fill="#4F46E5" filter="url(#shadow)"/>
  <text x="75" y="15" font-family="Arial" font-size="11" fill="white" text-anchor="middle">API Clients</text>
  <text x="75" y="30" font-family="Arial" font-size="9" fill="#DDD" text-anchor="middle">REST/WebSocket</text>
</g>

<!-- ============ LAYER 2: Gateway ============ -->
<line x1="175" y1="155" x2="700" y2="190" stroke="#94A3B8" stroke-width="2" marker-end="url(#arrow)"/>
<line x1="355" y1="155" x2="700" y2="190" stroke="#94A3B8" stroke-width="2" marker-end="url(#arrow)"/>

<rect x="550" y="190" width="300" height="45" rx="10" fill="#7C3AED" filter="url(#shadow)"/>
<text x="700" y="220" font-family="Arial" font-size="14" font-weight="bold" fill="white" text-anchor="middle">OpenClaw Gateway</text>

<!-- ============ LAYER 3: Server ============ -->
<line x1="700" y1="235" x2="700" y2="270" stroke="#94A3B8" stroke-width="2" marker-end="url(#arrow)"/>

<rect x="150" y="270" width="1100" height="280" rx="12" fill="#F0FDF4" stroke="#059669" stroke-width="2"/>
<text x="170" y="300" font-family="Arial" font-size="14" font-weight="bold" fill="#059669">claw-hive Server (:8080)</text>
<text x="170" y="320" font-family="Arial" font-size="10" fill="#64748B">TypeScript + WebSocket + Prometheus Metrics</text>

<!-- Services Row 1 -->
<rect x="180" y="340" width="150" height="80" rx="8" fill="#059669"/>
<text x="255" y="370" font-family="Arial" font-size="11" fill="white" text-anchor="middle">LLM Proxy</text>
<text x="255" y="388" font-family="Arial" font-size="9" fill="#DDD" text-anchor="middle">Passive Mode</text>

<rect x="350" y="340" width="150" height="80" rx="8" fill="#0891B2"/>
<text x="425" y="370" font-family="Arial" font-size="11" fill="white" text-anchor="middle">Token Aggregator</text>
<text x="425" y="388" font-family="Arial" font-size="9" fill="#DDD" text-anchor="middle">Real-time Stats</text>

<rect x="520" y="340" width="150" height="80" rx="8" fill="#DC2626"/>
<text x="595" y="370" font-family="Arial" font-size="11" fill="white" text-anchor="middle">Cost Calculator</text>
<text x="595" y="388" font-family="Arial" font-size="9" fill="#DDD" text-anchor="middle">Usage Tracking</text>

<rect x="690" y="340" width="150" height="80" rx="8" fill="#7C3AED"/>
<text x="765" y="370" font-family="Arial" font-size="11" fill="white" text-anchor="middle">LLM Tracker</text>
<text x="765" y="388" font-family="Arial" font-size="9" fill="#DDD" text-anchor="middle">Switch Detection</text>

<rect x="860" y="340" width="150" height="80" rx="8" fill="#EA580C"/>
<text x="935" y="370" font-family="Arial" font-size="11" fill="white" text-anchor="middle">Alert Service</text>
<text x="935" y="388" font-family="Arial" font-size="9" fill="#DDD" text-anchor="middle">5 Rules Active</text>

<rect x="1030" y="340" width="150" height="80" rx="8" fill="#475569"/>
<text x="1105" y="370" font-family="Arial" font-size="11" fill="white" text-anchor="middle">Metrics Exporter</text>
<text x="1105" y="388" font-family="Arial" font-size="9" fill="#DDD" text-anchor="middle">Prometheus</text>

<!-- Services Row 2 -->
<rect x="180" y="440" width="150" height="80" rx="8" fill="#059669"/>
<text x="255" y="470" font-family="Arial" font-size="11" fill="white" text-anchor="middle">Message Optimizer</text>
<text x="255" y="488" font-family="Arial" font-size="9" fill="#DDD" text-anchor="middle">Active Mode</text>

<rect x="350" y="440" width="150" height="80" rx="8" fill="#0891B2"/>
<text x="425" y="470" font-family="Arial" font-size="11" fill="white" text-anchor="middle">WebSocket Server</text>
<text x="425" y="488" font-family="Arial" font-size="9" fill="#DDD" text-anchor="middle">Real-time Updates</text>

<rect x="520" y="440" width="150" height="80" rx="8" fill="#0D9488"/>
<text x="595" y="470" font-family="Arial" font-size="11" fill="white" text-anchor="middle">JSONL Writers</text>
<text x="595" y="488" font-family="Arial" font-size="9" fill="#DDD" text-anchor="middle">Capture Files</text>

<!-- ============ LAYER 4: API Endpoints ============ -->
<line x1="700" y1="550" x2="700" y2="580" stroke="#94A3B8" stroke-width="2" marker-end="url(#arrow)"/>

<rect x="50" y="580" width="1300" height="60" rx="12" fill="#F8FAFC" stroke="#E2E8F0" stroke-width="1"/>
<text x="70" y="605" font-family="Arial" font-size="10" font-weight="bold" fill="#64748B">API Endpoints:</text>
<text x="70" y="625" font-family="Courier" font-size="9" fill="#475569">/api/health | /api/debug-proxy/captures | /api/stats/tokens | /api/cost/summary | /api/llm-tracker/* | /api/alerts/* | /metrics</text>

<!-- ============ LAYER 5: Sync Worker ============ -->
<line x1="700" y1="640" x2="700" y2="670" stroke="#94A3B8" stroke-width="2" marker-end="url(#arrow)"/>

<rect x="150" y="670" width="1100" height="100" rx="12" fill="#FFF7ED" stroke="#EA580C" stroke-width="2"/>
<text x="170" y="695" font-family="Arial" font-size="12" font-weight="bold" fill="#EA580C">Sync Worker (Background Process)</text>
<text x="170" y="715" font-family="Arial" font-size="10" fill="#64748B">chokidar file watcher + Batch insert to PostgreSQL + Checkpoint resume</text>

<rect x="200" y="725" width="120" height="35" rx="6" fill="#EA580C"/>
<text x="260" y="748" font-family="Arial" font-size="10" fill="white" text-anchor="middle">File Watcher</text>

<rect x="340" y="725" width="120" height="35" rx="6" fill="#EA580C"/>
<text x="400" y="748" font-family="Arial" font-size="10" fill="white" text-anchor="middle">Batch Buffer</text>

<rect x="480" y="725" width="120" height="35" rx="6" fill="#EA580C"/>
<text x="540" y="748" font-family="Arial" font-size="10" fill="white" text-anchor="middle">Checkpoint</text>

<rect x="620" y="725" width="120" height="35" rx="6" fill="#EA580C"/>
<text x="680" y="748" font-family="Arial" font-size="10" fill="white" text-anchor="middle">PG Insert</text>

<!-- ============ LAYER 6: PostgreSQL ============ -->
<line x1="700" y1="770" x2="700" y2="800" stroke="#94A3B8" stroke-width="2" marker-end="url(#arrow)"/>

<rect x="100" y="800" width="1200" height="90" rx="12" fill="#F1F5F9" stroke="#3B82F6" stroke-width="2"/>
<text x="120" y="825" font-family="Arial" font-size="12" font-weight="bold" fill="#3B82F6">PostgreSQL (openclaw_memory.claw_hive)</text>

<rect x="180" y="840" width="200" height="35" rx="6" fill="#3B82F6"/>
<text x="280" y="863" font-family="Arial" font-size="10" fill="white" text-anchor="middle">captures (82 rows)</text>

<rect x="420" y="840" width="200" height="35" rx="6" fill="#3B82F6"/>
<text x="520" y="863" font-family="Arial" font-size="10" fill="white" text-anchor="middle">llm_switches</text>

<!-- ============ LAYER 7: LLM Providers ============ -->
<line x1="700" y1="890" x2="700" y2="920" stroke="#94A3B8" stroke-width="2" marker-end="url(#arrow)"/>

<rect x="100" y="920" width="1200" height="60" rx="12" fill="#FFF7ED" stroke="#EA580C" stroke-width="2"/>
<text x="120" y="945" font-family="Arial" font-size="11" font-weight="bold" fill="#EA580C">LLM Providers</text>

<rect x="200" y="945" width="150" height="25" rx="6" fill="#EA580C"/>
<text x="275" y="962" font-family="Arial" font-size="10" fill="white" text-anchor="middle">MiniMax</text>

<rect x="450" y="945" width="150" height="25" rx="6" fill="#10B981"/>
<text x="525" y="962" font-family="Arial" font-size="10" fill="white" text-anchor="middle">OpenAI</text>

<rect x="700" y="945" width="150" height="25" rx="6" fill="#6366F1"/>
<text x="775" y="962" font-family="Arial" font-size="10" fill="white" text-anchor="middle">Anthropic</text>

<!-- ============ LAYER 8: External Services ============ -->
<rect x="50" y="1000" width="1300" height="70" rx="12" fill="#F1F5F9" stroke="#CBD5E1" stroke-width="1"/>
<text x="70" y="1020" font-family="Arial" font-size="10" font-weight="bold" fill="#475569">External Integrations</text>

<rect x="100" y="1030" width="150" height="30" rx="6" fill="#F97316"/>
<text x="175" y="1050" font-family="Arial" font-size="9" fill="white" text-anchor="middle">Prometheus</text>

<rect x="280" y="1030" width="150" height="30" rx="6" fill="#EAB308"/>
<text x="355" y="1050" font-family="Arial" font-size="9" fill="white" text-anchor="middle">Grafana</text>

<rect x="460" y="1030" width="150" height="30" rx="6" fill="#8B5CF6"/>
<text x="535" y="1050" font-family="Arial" font-size="9" fill="white" text-anchor="middle">Dashboard UI</text>

<rect x="640" y="1030" width="150" height="30" rx="6" fill="#64748B"/>
<text x="715" y="1050" font-family="Arial" font-size="9" fill="white" text-anchor="middle">Telegram</text>

<rect x="820" y="1030" width="150" height="30" rx="6" fill="#06B6D4"/>
<text x="895" y="1050" font-family="Arial" font-size="9" fill="white" text-anchor="middle">File System</text>

<rect x="1000" y="1030" width="150" height="30" rx="6" fill="#3B82F6"/>
<text x="1075" y="1050" font-family="Arial" font-size="9" fill="white" text-anchor="middle">PostgreSQL</text>

<!-- Legend -->
<rect x="50" y="1085" width="1300" height="40" rx="8" fill="#1E293B"/>
<text x="100" y="1108" font-family="Arial" font-size="9" fill="#94A3B8">Legend:</text>
<rect x="170" y="1098" width="10" height="10" rx="2" fill="#4F46E5"/>
<text x="185" y="1108" font-family="Arial" font-size="8" fill="white">Users</text>
<rect x="230" y="1098" width="10" height="10" rx="2" fill="#059669"/>
<text x="245" y="1108" font-family="Arial" font-size="8" fill="white">Services</text>
<rect x="310" y="1098" width="10" height="10" rx="2" fill="#EA580C"/>
<text x="325" y="1108" font-family="Arial" font-size="8" fill="white">Sync Worker</text>
<rect x="400" y="1098" width="10" height="10" rx="2" fill="#3B82F6"/>
<text x="415" y="1108" font-family="Arial" font-size="8" fill="white">PostgreSQL</text>
<rect x="500" y="1098" width="10" height="10" rx="2" fill="#F97316"/>
<text x="515" y="1108" font-family="Arial" font-size="8" fill="white">Prometheus</text>
<rect x="590" y="1098" width="10" height="10" rx="2" fill="#EAB308"/>
<text x="605" y="1108" font-family="Arial" font-size="8" fill="white">Grafana</text>
<rect x="660" y="1098" width="10" height="10" rx="2" fill="#8B5CF6"/>
<text x="675" y="1108" font-family="Arial" font-size="8" fill="white">Dashboard</text>

<text x="1200" y="1108" font-family="Arial" font-size="8" fill="#94A3B8">v2.1 | 2026-03-18</text>

<!-- Feature Tags -->
<text x="1350" y="30" font-family="Arial" font-size="9" fill="#059669" text-anchor="end">✅ Phase 1-3</text>
<text x="1350" y="42" font-family="Arial" font-size="9" fill="#059669" text-anchor="end">✅ TypeScript 100%</text>
<text x="1350" y="54" font-family="Arial" font-size="9" fill="#059669" text-anchor="end">✅ WebSocket</text>
<text x="1350" y="66" font-family="Arial" font-size="9" fill="#059669" text-anchor="end">✅ PostgreSQL Sync</text>
<text x="1350" y="78" font-family="Arial" font-size="9" fill="#059669" text-anchor="end">✅ CI/CD</text>

</svg>
