<?xml version="1.0" encoding="UTF-8"?>
<svg width="1400" height="1000" xmlns="http://www.w3.org/2000/svg">
<defs>
  <marker id="arrow" markerWidth="10" markerHeight="7" refX="9" refY="3.5" orient="auto">
    <polygon points="0 0, 10 3.5, 0 7" fill="#94A3B8"/>
  </marker>
  <filter id="shadow" x="-20%" y="-20%" width="140%" height="140%">
    <feDropShadow dx="2" dy="2" stdDeviation="3" flood-opacity="0.1"/>
  </filter>
</defs>
<rect width="100%" height="100%" fill="#FAFAFA"/>

<!-- Title -->
<text x="700" y="35" font-family="Arial" font-size="28" font-weight="bold" fill="#1E293B" text-anchor="middle">Claw-Hive Core System Architecture</text>
<text x="700" y="60" font-family="Arial" font-size="14" fill="#64748B" text-anchor="middle">Primary LLM Gateway &amp; Monitoring System</text>

<!-- ============ LAYER 1: Users ============ -->
<rect x="50" y="80" width="1300" height="90" rx="12" fill="#EEF2FF" stroke="#4F46E5" stroke-width="2"/>
<text x="70" y="105" font-family="Arial" font-size="12" font-weight="bold" fill="#4F46E5">USERS</text>

<g transform="translate(100, 115)">
  <rect x="0" y="0" width="140" height="50" rx="8" fill="#4F46E5" filter="url(#shadow)"/>
  <text x="70" y="20" font-family="Arial" font-size="11" fill="white" text-anchor="middle">Telegram</text>
  <text x="70" y="38" font-family="Arial" font-size="9" fill="#DDD" text-anchor="middle">Arthur Wang</text>
</g>
<g transform="translate(280, 115)">
  <rect x="0" y="0" width="140" height="50" rx="8" fill="#4F46E5" filter="url(#shadow)"/>
  <text x="70" y="20" font-family="Arial" font-size="11" fill="white" text-anchor="middle">REST API</text>
  <text x="70" y="38" font-family="Arial" font-size="9" fill="#DDD" text-anchor="middle">External Clients</text>
</g>
<g transform="translate(460, 115)">
  <rect x="0" y="0" width="140" height="50" rx="8" fill="#4F46E5" filter="url(#shadow)"/>
  <text x="70" y="20" font-family="Arial" font-size="11" fill="white" text-anchor="middle">WebSocket</text>
  <text x="70" y="38" font-family="Arial" font-size="9" fill="#DDD" text-anchor="middle">Real-time UI</text>
</g>
<g transform="translate(640, 115)">
  <rect x="0" y="0" width="140" height="50" rx="8" fill="#4F46E5" filter="url(#shadow)"/>
  <text x="70" y="20" font-family="Arial" font-size="11" fill="white" text-anchor="middle">Dashboard</text>
  <text x="70" y="38" font-family="Arial" font-size="9" fill="#DDD" text-anchor="middle">React UI</text>
</g>
<g transform="translate(820, 115)">
  <rect x="0" y="0" width="140" height="50" rx="8" fill="#4F46E5" filter="url(#shadow)"/>
  <text x="70" y="20" font-family="Arial" font-size="11" fill="white" text-anchor="middle">Prometheus</text>
  <text x="70" y="38" font-family="Arial" font-size="9" fill="#DDD" text-anchor="middle">Metrics</text>
</g>
<g transform="translate(1000, 115)">
  <rect x="0" y="0" width="140" height="50" rx="8" fill="#4F46E5" filter="url(#shadow)"/>
  <text x="70" y="20" font-family="Arial" font-size="11" fill="white" text-anchor="middle">Grafana</text>
  <text x="70" y="38" font-family="Arial" font-size="9" fill="#DDD" text-anchor="middle">Dashboards</text>
</g>

<!-- ============ LAYER 2: Gateway ============ -->
<line x1="170" y1="165" x2="700" y2="205" stroke="#94A3B8" stroke-width="2" marker-end="url(#arrow)"/>
<line x1="350" y1="165" x2="700" y2="205" stroke="#94A3B8" stroke-width="2" marker-end="url(#arrow)"/>
<line x1="530" y1="165" x2="700" y2="205" stroke="#94A3B8" stroke-width="2" marker-end="url(#arrow)"/>
<line x1="710" y1="165" x2="700" y2="205" stroke="#94A3B8" stroke-width="2" marker-end="url(#arrow)"/>
<line x1="890" y1="165" x2="700" y2="205" stroke="#94A3B8" stroke-width="2" marker-end="url(#arrow)"/>
<line x1="1070" y1="165" x2="700" y2="205" stroke="#94A3B8" stroke-width="2" marker-end="url(#arrow)"/>

<rect x="550" y="205" width="300" height="50" rx="10" fill="#7C3AED" filter="url(#shadow)"/>
<text x="700" y="238" font-family="Arial" font-size="16" font-weight="bold" fill="white" text-anchor="middle">OpenClaw Gateway</text>

<!-- ============ LAYER 3: Server ============ -->
<line x1="700" y1="255" x2="700" y2="290" stroke="#94A3B8" stroke-width="2" marker-end="url(#arrow)"/>

<rect x="100" y="290" width="1200" height="360" rx="12" fill="#F0FDF4" stroke="#059669" stroke-width="2"/>
<text x="120" y="320" font-family="Arial" font-size="16" font-weight="bold" fill="#059669">claw-hive Server (:8080)</text>
<text x="120" y="345" font-family="Arial" font-size="11" fill="#64748B">TypeScript | 100% | Express + WebSocket | Prometheus Metrics</text>

<!-- Services Row 1 -->
<rect x="130" y="365" width="170" height="90" rx="8" fill="#059669"/>
<text x="215" y="400" font-family="Arial" font-size="12" fill="white" text-anchor="middle">LLM Proxy</text>
<text x="215" y="420" font-family="Arial" font-size="10" fill="#DDD" text-anchor="middle">Passive Mode</text>
<text x="215" y="438" font-family="Arial" font-size="9" fill="#AAD" text-anchor="middle">HTTP 劫持 / 记录</text>

<rect x="320" y="365" width="170" height="90" rx="8" fill="#0891B2"/>
<text x="405" y="400" font-family="Arial" font-size="12" fill="white" text-anchor="middle">Token Aggregator</text>
<text x="405" y="420" font-family="Arial" font-size="10" fill="#DDD" text-anchor="middle">Real-time Stats</text>
<text x="405" y="438" font-family="Arial" font-size="9" fill="#AAD" text-anchor="middle">Tokens In/Out</text>

<rect x="510" y="365" width="170" height="90" rx="8" fill="#DC2626"/>
<text x="595" y="400" font-family="Arial" font-size="12" fill="white" text-anchor="middle">Cost Calculator</text>
<text x="595" y="420" font-family="Arial" font-size="10" fill="#DDD" text-anchor="middle">Usage Tracking</text>
<text x="595" y="438" font-family="Arial" font-size="9" fill="#AAD" text-anchor="middle">MiniMax/OpenAI/Anthropic</text>

<rect x="700" y="365" width="170" height="90" rx="8" fill="#7C3AED"/>
<text x="785" y="400" font-family="Arial" font-size="12" fill="white" text-anchor="middle">LLM Tracker</text>
<text x="785" y="420" font-family="Arial" font-size="10" fill="#DDD" text-anchor="middle">Switch Detection</text>
<text x="785" y="438" font-family="Arial" font-size="9" fill="#AAD" text-anchor="middle">Provider 切换监控</text>

<rect x="890" y="365" width="170" height="90" rx="8" fill="#EA580C"/>
<text x="975" y="400" font-family="Arial" font-size="12" fill="white" text-anchor="middle">Alert Service</text>
<text x="975" y="420" font-family="Arial" font-size="10" fill="#DDD" text-anchor="middle">5 Rules Active</text>
<text x="975" y="438" font-family="Arial" font-size="9" fill="#AAD" text-anchor="middle">Error / Latency / Cost</text>

<rect x="1080" y="365" width="170" height="90" rx="8" fill="#475569"/>
<text x="1165" y="400" font-family="Arial" font-size="12" fill="white" text-anchor="middle">Metrics Exporter</text>
<text x="1165" y="420" font-family="Arial" font-size="10" fill="#DDD" text-anchor="middle">Prometheus</text>
<text x="1165" y="438" font-family="Arial" font-size="9" fill="#AAD" text-anchor="middle">/metrics endpoint</text>

<!-- Services Row 2 -->
<rect x="130" y="470" width="170" height="90" rx="8" fill="#059669"/>
<text x="215" y="505" font-family="Arial" font-size="12" fill="white" text-anchor="middle">Message Optimizer</text>
<text x="215" y="525" font-family="Arial" font-size="10" fill="#DDD" text-anchor="middle">Active Mode</text>
<text x="215" y="543" font-family="Arial" font-size="9" fill="#AAD" text-anchor="middle">Token 优化</text>

<rect x="320" y="470" width="170" height="90" rx="8" fill="#0891B2"/>
<text x="405" y="505" font-family="Arial" font-size="12" fill="white" text-anchor="middle">WebSocket Server</text>
<text x="405" y="525" font-family="Arial" font-size="10" fill="#DDD" text-anchor="middle">Real-time Updates</text>
<text x="405" y="543" font-family="Arial" font-size="9" fill="#AAD" text-anchor="middle">Push to Dashboard</text>

<rect x="510" y="470" width="170" height="90" rx="8" fill="#06B6D4"/>
<text x="595" y="505" font-family="Arial" font-size="12" fill="white" text-anchor="middle">JSONL Writer</text>
<text x="595" y="525" font-family="Arial" font-size="10" fill="#DDD" text-anchor="middle">Captures</text>
<text x="595" y="543" font-family="Arial" font-size="9" fill="#AAD" text-anchor="middle">File: captures/*.jsonl</text>

<rect x="700" y="470" width="170" height="90" rx="8" fill="#8B5CF6"/>
<text x="785" y="505" font-family="Arial" font-size="12" fill="white" text-anchor="middle">API Routes</text>
<text x="785" y="525" font-family="Arial" font-size="10" fill="#DDD" text-anchor="middle">21+ Endpoints</text>
<text x="785" y="543" font-family="Arial" font-size="9" fill="#AAD" text-anchor="middle">Debug/Cost/LLM/Alert</text>

<rect x="890" y="470" width="170" height="90" rx="8" fill="#EC4899"/>
<text x="975" y="505" font-family="Arial" font-size="12" fill="white" text-anchor="middle">Dashboard UI</text>
<text x="975" y="525" font-family="Arial" font-size="10" fill="#DDD" text-anchor="middle">React + TS</text>
<text x="975" y="543" font-family="Arial" font-size="9" fill="#AAD" text-anchor="middle">8 Pages</text>

<!-- Rate Limiter -->
<rect x="1080" y="470" width="170" height="90" rx="8" fill="#F59E0B"/>
<text x="1165" y="505" font-family="Arial" font-size="12" fill="white" text-anchor="middle">Rate Limiter</text>
<text x="1165" y="525" font-family="Arial" font-size="10" fill="#DDD" text-anchor="middle">1000 req/min</text>
<text x="1165" y="543" font-family="Arial" font-size="9" fill="#AAD" text-anchor="middle">per IP</text>

<!-- ============ LAYER 4: API Endpoints ============ -->
<line x1="700" y1="560" x2="700" y2="590" stroke="#94A3B8" stroke-width="2" marker-end="url(#arrow)"/>

<rect x="50" y="590" width="1300" height="70" rx="12" fill="#F8FAFC" stroke="#E2E8F0" stroke-width="1"/>
<text x="70" y="615" font-family="Arial" font-size="11" font-weight="bold" fill="#64748B">API Endpoints (21+)</text>
<text x="70" y="635" font-family="Courier" font-size="9" fill="#475569">GET /api/health | GET /api/debug-proxy/captures | GET /api/stats/tokens | GET /api/cost/summary | GET /api/cost/pricing</text>
<text x="70" y="652" font-family="Courier" font-size="9" fill="#475569">GET /api/llm-tracker/agents | GET /api/llm-tracker/providers | GET /api/llm-tracker/switches | GET /api/alerts/summary</text>

<!-- ============ LAYER 5: Data Storage ============ -->
<rect x="50" y="680" width="640" height="100" rx="12" fill="#F1F5F9" stroke="#3B82F6" stroke-width="2"/>
<text x="70" y="705" font-family="Arial" font-size="12" font-weight="bold" fill="#3B82F6">Local Storage (Primary)</text>
<text x="70" y="725" font-family="Arial" font-size="10" fill="#64748B">Files are written synchronously - Core system depends on these</text>

<rect x="100" y="745" width="150" height="30" rx="6" fill="#3B82F6"/>
<text x="175" y="765" font-family="Arial" font-size="10" fill="white" text-anchor="middle">captures/*.jsonl</text>

<rect x="270" y="745" width="150" height="30" rx="6" fill="#3B82F6"/>
<text x="345" y="765" font-family="Arial" font-size="10" fill="white" text-anchor="middle">sessions/*.jsonl</text>

<rect x="440" y="745" width="150" height="30" rx="6" fill="#3B82F6"/>
<text x="515" y="765" font-family="Arial" font-size="10" fill="white" text-anchor="middle">events/*.jsonl</text>

<!-- ============ LAYER 6: LLM Providers ============ -->
<rect x="710" y="680" width="640" height="100" rx="12" fill="#FFF7ED" stroke="#EA580C" stroke-width="2"/>
<text x="730" y="705" font-family="Arial" font-size="12" font-weight="bold" fill="#EA580C">LLM Providers</text>
<text x="730" y="725" font-family="Arial" font-size="10" fill="#64748B">Server makes outbound requests to these providers</text>

<rect x="760" y="745" width="150" height="30" rx="6" fill="#EA580C"/>
<text x="835" y="765" font-family="Arial" font-size="10" fill="white" text-anchor="middle">MiniMax</text>

<rect x="930" y="745" width="150" height="30" rx="6" fill="#10B981"/>
<text x="1005" y="765" font-family="Arial" font-size="10" fill="white" text-anchor="middle">OpenAI</text>

<rect x="1100" y="745" width="150" height="30" rx="6" fill="#6366F1"/>
<text x="1175" y="765" font-family="Arial" font-size="10" fill="white" text-anchor="middle">Anthropic</text>

<!-- External Integrations -->
<rect x="50" y="800" width="1300" height="60" rx="12" fill="#F1F5F9" stroke="#CBD5E1" stroke-width="1"/>
<text x="70" y="825" font-family="Arial" font-size="10" font-weight="bold" fill="#475569">External Integrations</text>
<rect x="100" y="830" width="120" height="25" rx="4" fill="#F97316"/>
<text x="160" y="847" font-family="Arial" font-size="9" fill="white" text-anchor="middle">Prometheus</text>
<rect x="240" y="830" width="120" height="25" rx="4" fill="#EAB308"/>
<text x="300" y="847" font-family="Arial" font-size="9" fill="white" text-anchor="middle">Grafana</text>
<rect x="380" y="830" width="120" height="25" rx="4" fill="#8B5CF6"/>
<text x="440" y="847" font-family="Arial" font-size="9" fill="white" text-anchor="middle">Dashboard UI</text>
<rect x="520" y="830" width="120" height="25" rx="4" fill="#64748B"/>
<text x="580" y="847" font-family="Arial" font-size="9" fill="white" text-anchor="middle">Telegram</text>

<!-- Legend -->
<rect x="50" y="880" width="1300" height="40" rx="8" fill="#1E293B"/>
<text x="80" y="903" font-family="Arial" font-size="9" fill="#94A3B8">Legend:</text>
<rect x="150" y="893" width="12" height="12" rx="2" fill="#059669"/>
<text x="167" y="903" font-family="Arial" font-size="8" fill="white">Services</text>
<rect x="230" y="893" width="12" height="12" rx="2" fill="#06B6D4"/>
<text x="247" y="903" font-family="Arial" font-size="8" fill="white">Storage</text>
<rect x="310" y="893" width="12" height="12" rx="2" fill="#EA580C"/>
<text x="327" y="903" font-family="Arial" font-size="8" fill="white">LLM Providers</text>
<rect x="430" y="893" width="12" height="12" rx="2" fill="#3B82F6"/>
<text x="447" y="903" font-family="Arial" font-size="8" fill="white">Data</text>

<text x="1200" y="903" font-family="Arial" font-size="8" fill="#94A3B8">Core System v2.1 | 2026-03-18</text>

<!-- Feature Tags -->
<text x="1350" y="30" font-family="Arial" font-size="9" fill="#059669" text-anchor="end">✅ Phase 1-3 Complete</text>
<text x="1350" y="42" font-family="Arial" font-size="9" fill="#059669" text-anchor="end">✅ TypeScript 100%</text>
<text x="1350" y="54" font-family="Arial" font-size="9" fill="#059669" text-anchor="end">✅ WebSocket Real-time</text>
<text x="1350" y="66" font-family="Arial" font-size="9" fill="#059669" text-anchor="end">✅ CI/CD Pipeline</text>
<text x="1350" y="78" font-family="Arial" font-size="9" fill="#06B6D4" text-anchor="end">📁 Local JSONL Files</text>

</svg>
