<svg xmlns="http://www.w3.org/2000/svg" viewBox="0 0 200 200">
  <defs>
    <linearGradient id="g" x1="0%" y1="0%" x2="100%" y2="100%">
      <stop offset="0%" style="stop-color:#FF6B35"/>
      <stop offset="100%" style="stop-color:#FF8C42"/>
    </linearGradient>
  </defs>
  
  <!-- Hexagon 1 - Working (top-left) -->
  <polygon points="50,20 80,35 80,65 50,80 20,65 20,35" fill="#fff" stroke="#FF6B35" stroke-width="3"/>
  <circle cx="50" cy="50" r="18" fill="#FF6B35"/>
  <circle cx="45" cy="46" r="3" fill="#fff"/>
  <circle cx="55" cy="46" r="3" fill="#fff"/>
  <circle cx="45" cy="46" r="1.5" fill="#000"/>
  <circle cx="55" cy="46" r="1.5" fill="#000"/>
  <path d="M45,54 Q50,58 55,54" stroke="#000" stroke-width="2" fill="none"/>
  <rect x="32" y="42" width="6" height="8" fill="#666" rx="1"/>
  <rect x="62" y="42" width="6" height="8" fill="#666" rx="1"/>
  
  <!-- Hexagon 2 - Sleeping (top-right) -->
  <polygon points="150,20 180,35 180,65 150,80 120,65 120,35" fill="#fff" stroke="#FF6B35" stroke-width="3"/>
  <circle cx="150" cy="50" r="18" fill="#FF6B35"/>
  <circle cx="145" cy="46" r="3" fill="#fff"/>
  <circle cx="155" cy="46" r="3" fill="#fff"/>
  <circle cx="145" cy="46" r="1.5" fill="#000"/>
  <circle cx="155" cy="46" r="1.5" fill="#000"/>
  <path d="M145,54 Q150,58 155,54" stroke="#000" stroke-width="2" fill="none"/>
  <text x="158" y="35" font-size="14" fill="#666" font-weight="bold">Z</text>
  
  <!-- Hexagon 3 - Angry (bottom-left) -->
  <polygon points="50,120 80,135 80,165 50,180 20,165 20,135" fill="#fff" stroke="#FF6B35" stroke-width="3"/>
  <circle cx="50" cy="150" r="18" fill="#FF6B35"/>
  <circle cx="44" cy="145" r="3" fill="#fff"/>
  <circle cx="56" cy="145" r="3" fill="#fff"/>
  <circle cx="44" cy="145" r="1.5" fill="#000"/>
  <circle cx="56" cy="145" r="1.5" fill="#000"/>
  <path d="M44,158 L56,158" stroke="#000" stroke-width="2"/>
  <path d="M42,138 L46,142" stroke="#FF6B35" stroke-width="2"/>
  <path d="M58,138 L54,142" stroke="#FF6B35" stroke-width="2"/>
  
  <!-- Hexagon 4 - Happy (bottom-right) -->
  <polygon points="150,120 180,135 180,165 150,180 120,165 120,135" fill="#fff" stroke="#FF6B35" stroke-width="3"/>
  <circle cx="150" cy="150" r="18" fill="#FF6B35"/>
  <circle cx="144" cy="146" r="3" fill="#fff"/>
  <circle cx="156" cy="146" r="3" fill="#fff"/>
  <circle cx="144" cy="146" r="1.5" fill="#000"/>
  <circle cx="156" cy="146" r="1.5" fill="#000"/>
  <path d="M144,154 Q150,162 156,154" stroke="#000" stroke-width="2" fill="none"/>
  
  <!-- Hexagon 5 - Sad (top-center) -->
  <polygon points="100,70 130,85 130,115 100,130 70,115 70,85" fill="#fff" stroke="#FF6B35" stroke-width="3"/>
  <circle cx="100" cy="100" r="18" fill="#FF6B35"/>
  <circle cx="94" cy="96" r="3" fill="#fff"/>
  <circle cx="106" cy="96" r="3" fill="#fff"/>
  <circle cx="94" cy="96" r="1.5" fill="#000"/>
  <circle cx="106" cy="96" r="1.5" fill="#000"/>
  <path d="M94,106 Q100,102 106,106" stroke="#000" stroke-width="2" fill="none"/>
  <circle cx="90" cy="104" r="2" fill="#66CCFF"/>
  <circle cx="110" cy="104" r="2" fill="#66CCFF"/>
  
  <!-- Hexagon 6 - Queen/Center -->
  <polygon points="100,70 130,85 130,115 100,130 70,115 70,85" fill="#FF6B35" stroke="#fff" stroke-width="4"/>
  <circle cx="100" cy="100" r="18" fill="#fff"/>
  <circle cx="94" cy="96" r="3" fill="#FF6B35"/>
  <circle cx="106" cy="96" r="3" fill="#FF6B35"/>
  <circle cx="94" cy="96" r="1.5" fill="#FF6B35"/>
  <circle cx="106" cy="96" r="1.5" fill="#FF6B35"/>
  <path d="M94,106 Q100,110 106,106" stroke="#FF6B35" stroke-width="2" fill="none"/>
  <circle cx="88" cy="94" r="2.5" fill="#FF6B35"/>
  <circle cx="112" cy="94" r="2.5" fill="#FF6B35"/>
</svg>
