<svg xmlns="http://www.w3.org/2000/svg" viewBox="0 0 100 100">
  <defs>
    <linearGradient id="g" x1="0%" y1="0%" x2="100%" y2="100%">
      <stop offset="0%" style="stop-color:#FF6B35"/>
      <stop offset="100%" style="stop-color:#FF8C42"/>
    </linearGradient>
  </defs>
  
  <!-- Hexagon 1 - Working -->
  <polygon points="25,10 40,17 40,33 25,40 10,33 10,17" fill="#fff" stroke="#FF6B35" stroke-width="2"/>
  <g transform="translate(17,18) scale(0.25)">
    <ellipse cx="16" cy="17" rx="5" ry="4" fill="#FF6B35"/>
    <circle cx="14" cy="15" r="1" fill="#000"/>
    <circle cx="18" cy="15" r="1" fill="#000"/>
    <path d="M14,19 Q16,21 18,19" stroke="#000" stroke-width="0.5" fill="none"/>
    <rect x="8" y="14" width="3" height="4" fill="#666"/>
    <rect x="21" y="14" width="3" height="4" fill="#666"/>
  </g>
  
  <!-- Hexagon 2 - Sleeping -->
  <polygon points="75,10 90,17 90,33 75,40 60,33 60,17" fill="#fff" stroke="#FF6B35" stroke-width="2"/>
  <g transform="translate(67,18) scale(0.25)">
    <ellipse cx="16" cy="17" rx="5" ry="4" fill="#FF6B35"/>
    <circle cx="14" cy="15" r="1" fill="#000"/>
    <circle cx="18" cy="15" r="1" fill="#000"/>
    <path d="M14,19 Q16,21 18,19" stroke="#000" stroke-width="0.5" fill="none"/>
    <text x="20" y="10" font-size="8" fill="#666">Z</text>
  </g>
  
  <!-- Hexagon 3 - Angry -->
  <polygon points="25,60 40,67 40,83 25,90 10,83 10,67" fill="#fff" stroke="#FF6B35" stroke-width="2"/>
  <g transform="translate(17,68) scale(0.25)">
    <ellipse cx="16" cy="17" rx="5" ry="4" fill="#FF6B35"/>
    <circle cx="12" cy="14" r="1.5" fill="#000"/>
    <circle cx="20" cy="14" r="1.5" fill="#000"/>
    <path d="M13,20 L19,20" stroke="#000" stroke-width="1"/>
    <path d="M12,10 L14,12" stroke="#FF6B35" stroke-width="1"/>
    <path d="M20,10 L18,12" stroke="#FF6B35" stroke-width="1"/>
  </g>
  
  <!-- Hexagon 4 - Happy -->
  <polygon points="75,60 90,67 90,83 75,90 60,83 60,67" fill="#fff" stroke="#FF6B35" stroke-width="2"/>
  <g transform="translate(67,68) scale(0.25)">
    <ellipse cx="16" cy="17" rx="5" ry="4" fill="#FF6B35"/>
    <circle cx="14" cy="15" r="1" fill="#000"/>
    <circle cx="18" cy="15" r="1" fill="#000"/>
    <path d="M13,19 Q16,23 19,19" stroke="#000" stroke-width="0.5" fill="none"/>
  </g>
  
  <!-- Hexagon 5 - Sad/Crying -->
  <polygon points="50,35 65,42 65,58 50,65 35,58 35,42" fill="#fff" stroke="#FF6B35" stroke-width="2"/>
  <g transform="translate(42,43) scale(0.25)">
    <ellipse cx="16" cy="17" rx="5" ry="4" fill="#FF6B35"/>
    <circle cx="14" cy="15" r="1" fill="#000"/>
    <circle cx="18" cy="15" r="1" fill="#000"/>
    <path d="M14,19 Q16,17 18,19" stroke="#000" stroke-width="0.5" fill="none"/>
    <circle cx="12" cy="18" r="1" fill="#66CCFF"/>
    <circle cx="20" cy="18" r="1" fill="#66CCFF"/>
  </g>
  
  <!-- Center Hexagon - Queen/Leader -->
  <polygon points="50,35 65,42 65,58 50,65 35,58 35,42" fill="#FF6B35" stroke="#fff" stroke-width="3"/>
  <g transform="translate(42,43) scale(0.3)">
    <ellipse cx="16" cy="17" rx="5" ry="4" fill="#fff"/>
    <circle cx="14" cy="15" r="1.2" fill="#FF6B35"/>
    <circle cx="18" cy="15" r="1.2" fill="#FF6B35"/>
    <path d="M14,19 Q16,22 18,19" stroke="#FF6B35" stroke-width="0.6" fill="none"/>
    <circle cx="11" cy="16" r="1.5" fill="#FF6B35"/>
    <circle cx="21" cy="16" r="1.5" fill="#FF6B35"/>
  </g>
</svg>
